<?xml version="1.0" standalone="no"?>
<!DOCTYPE svg PUBLIC "-//W3C//DTD SVG 20010904//EN"
 "http://www.w3.org/TR/2001/REC-SVG-20010904/DTD/svg10.dtd">
<svg version="1.0" xmlns="http://www.w3.org/2000/svg"
 width="300.000000pt" height="300.000000pt" viewBox="0 0 300.000000 300.000000"
 preserveAspectRatio="xMidYMid meet">
<metadata>
Created by potrace 1.11, written by Peter Selinger 2001-2013
</metadata>
<g transform="translate(0.000000,300.000000) scale(0.100000,-0.100000)"
fill="#000000" stroke="none">
<path d="M0 1500 l0 -1500 1500 0 1500 0 0 1500 0 1500 -1500 0 -1500 0 0
-1500z m1992 446 c141 -27 334 -114 579 -262 59 -35 109 -64 112 -64 2 0 7 23
10 50 12 99 31 90 49 -23 l12 -78 95 -56 c157 -92 163 -113 14 -43 -47 22 -89
40 -92 40 -3 0 -4 -85 -2 -190 l3 -189 -26 -12 c-20 -9 -32 -9 -52 -1 l-25 12
3 214 3 215 -215 105 c-227 111 -382 169 -493 185 -162 23 -360 -47 -744 -262
-268 -150 -308 -169 -356 -165 -63 5 -58 41 14 92 13 9 20 18 17 21 -14 14
-192 45 -263 45 -94 0 -173 -20 -308 -80 l-94 -41 -6 -122 c-5 -127 -29 -231
-50 -224 -20 6 -46 126 -46 214 l-1 83 -29 -6 c-24 -5 -32 -1 -46 19 -28 43
-13 60 96 111 238 112 323 139 439 139 100 0 170 -18 287 -76 l82 -40 168 93
c268 148 283 156 388 203 126 55 188 76 278 92 95 17 112 17 199 1z"/>
</g>
</svg>
